<?xml version="1.0" encoding="UTF-8" standalone="no"?>
<!-- Created with Inkscape (http://www.inkscape.org/) -->

<svg
   width="104.35015mm"
   height="104.34997mm"
   viewBox="0 0 104.35015 104.34997"
   version="1.1"
   id="svg1"
   inkscape:version="1.4.2 (ebf0e940d0, 2025-05-08)"
   sodipodi:docname="DL_diagram.svg"
   xmlns:inkscape="http://www.inkscape.org/namespaces/inkscape"
   xmlns:sodipodi="http://sodipodi.sourceforge.net/DTD/sodipodi-0.dtd"
   xmlns="http://www.w3.org/2000/svg"
   xmlns:svg="http://www.w3.org/2000/svg">
  <sodipodi:namedview
     id="namedview1"
     pagecolor="#ffffff"
     bordercolor="#666666"
     borderopacity="1.0"
     inkscape:showpageshadow="2"
     inkscape:pageopacity="0.0"
     inkscape:pagecheckerboard="0"
     inkscape:deskcolor="#d1d1d1"
     inkscape:document-units="mm"
     showguides="true"
     inkscape:zoom="3.3053054"
     inkscape:cx="320.84781"
     inkscape:cy="46.591761"
     inkscape:window-width="1920"
     inkscape:window-height="1022"
     inkscape:window-x="1920"
     inkscape:window-y="0"
     inkscape:window-maximized="1"
     inkscape:current-layer="layer1">
    <sodipodi:guide
       position="52.174974,276.11467"
       orientation="1,0"
       id="guide1"
       inkscape:locked="false" />
    <sodipodi:guide
       position="20.884739,244.82491"
       orientation="0,-1"
       id="guide2"
       inkscape:locked="false" />
    <sodipodi:guide
       position="79.807931,114.75622"
       orientation="1,0"
       id="guide15"
       inkscape:locked="false" />
  </sodipodi:namedview>
  <defs
     id="defs1" />
  <g
     inkscape:label="Layer 1"
     inkscape:groupmode="layer"
     id="layer1"
     transform="translate(-54.890156,-51.366444)">
    <path
       sodipodi:type="star"
       style="fill:#ffdd55;stroke:#000000;stroke-width:0.141111;stroke-dasharray:none;stroke-dashoffset:0"
       id="path3"
       inkscape:flatsided="false"
       sodipodi:sides="12"
       sodipodi:cx="107.06513"
       sodipodi:cy="103.54153"
       sodipodi:r1="1.9361217"
       sodipodi:r2="0.98742205"
       sodipodi:arg1="-2.0417119"
       sodipodi:arg2="-1.7799125"
       inkscape:rounded="0.03"
       inkscape:randomized="0.07"
       d="m 106.18597,101.70173 c 0.0263,-0.0149 0.52572,0.98454 0.55534,0.97831 0.0296,-0.006 0.48023,-1.17171 0.51139,-1.17058 0.0311,0.001 0.0559,1.20276 0.0854,1.21328 0.0294,0.0105 0.88197,-0.77409 0.90869,-0.75869 0.0267,0.0154 -0.49423,1.01334 -0.4736,1.0367 0.0206,0.0234 0.95605,-0.23783 0.96735,-0.21031 0.0113,0.0275 -0.81332,0.60804 -0.80831,0.63768 0.005,0.0296 0.97052,0.13402 0.97126,0.16477 7.4e-4,0.0307 -0.8541,0.30287 -0.86502,0.33158 -0.0109,0.0287 0.75687,0.75687 0.74163,0.78432 -0.0152,0.0275 -1.0211,-0.41948 -1.04272,-0.39921 -0.0216,0.0203 0.23978,1.06708 0.21161,1.07815 -0.0282,0.0111 -0.52532,-1.01767 -0.55535,-1.00832 -0.03,0.009 -0.48155,1.19826 -0.5111,1.19399 -0.0296,-0.004 -0.0705,-1.06119 -0.1,-1.06733 -0.0295,-0.006 -0.86734,0.62679 -0.89407,0.61274 -0.0267,-0.014 0.50686,-0.9115 0.48793,-0.935 -0.0189,-0.0235 -0.982,0.31143 -0.9963,0.28457 -0.0143,-0.0268 0.81179,-0.63652 0.80831,-0.66769 -0.003,-0.0312 -0.97236,-0.39915 -0.97153,-0.42923 8.2e-4,-0.0301 1.0375,-0.1755 1.04355,-0.20433 0.006,-0.0288 -0.75876,-0.75858 -0.74163,-0.78431 0.0171,-0.0257 0.85384,0.40918 0.87907,0.39046 0.0252,-0.0187 -0.23817,-1.05668 -0.21188,-1.07155 z"
       inkscape:transform-center-x="0.0095276562"
       inkscape:transform-center-y="0.086555937" />
    <circle
       style="fill:none;stroke:#cccccc;stroke-width:1;stroke-dasharray:2, 1;stroke-dashoffset:0"
       id="path1"
       cx="107.06513"
       cy="103.54153"
       r="51.675175" />
    <rect
       style="fill:#ffffff;stroke:#000000;stroke-width:0.500189;stroke-dasharray:none;stroke-dashoffset:0"
       id="rect1"
       width="3.3325098"
       height="5.28023"
       x="47.59988"
       y="122.14206"
       transform="matrix(0.99408719,-0.10858481,0.06990291,0.9975538,0,0)" />
    <text
       xml:space="preserve"
       style="font-style:italic;font-size:4.9389px;line-height:1.25;font-family:'Noto Serif';-inkscape-font-specification:'Noto Serif Italic';text-align:center;letter-spacing:0px;text-anchor:middle;stroke-width:0.264583"
       x="62.578831"
       y="120.35263"
       id="text1"><tspan
         sodipodi:role="line"
         id="tspan1"
         style="stroke-width:0.264583"
         x="62.578831"
         y="120.35263">A</tspan></text>
    <circle
       style="fill:#ffdd55;stroke:#000000;stroke-width:0.141111;stroke-dasharray:none;stroke-dashoffset:0"
       id="path2"
       cx="107.06513"
       cy="103.54153"
       r="1.0228043" />
    <text
       xml:space="preserve"
       style="font-style:italic;font-size:4.9389px;line-height:1.25;font-family:'Noto Serif';-inkscape-font-specification:'Noto Serif Italic';text-align:center;letter-spacing:0px;text-anchor:middle;stroke-width:0.264583"
       x="111.38535"
       y="101.08829"
       id="text3"><tspan
         sodipodi:role="line"
         id="tspan3"
         style="stroke-width:0.264583"
         x="111.38535"
         y="101.08829">L</tspan></text>
    <text
       xml:space="preserve"
       style="font-size:4.9389px;line-height:1.25;font-family:'Noto Serif';-inkscape-font-specification:'Noto Serif';letter-spacing:0px;stroke-width:0.264583"
       x="103.89902"
       y="62.20895"
       id="text7"><tspan
         sodipodi:role="line"
         id="tspan7"
         style="stroke-width:0.264583"
         x="103.89902"
         y="62.20895">surface area = 4π<tspan
   style="font-style:italic"
   id="tspan9">r</tspan><tspan
   style="font-size:65%;baseline-shift:super"
   id="tspan8">2</tspan></tspan></text>
    <text
       xml:space="preserve"
       style="font-size:4.9389px;line-height:1.25;font-family:'Noto Serif';-inkscape-font-specification:'Noto Serif';letter-spacing:0px;stroke-width:0.264583"
       x="134.38176"
       y="68.005669"
       id="text10"><tspan
         sodipodi:role="line"
         id="tspan10"
         style="stroke-width:0.264583"
         x="134.38176"
         y="68.005669">= 4π<tspan
   style="font-style:italic"
   id="tspan13">D<tspan
   style="font-size:65%;baseline-shift:sub"
   id="tspan14">M</tspan></tspan>(<tspan
   style="font-style:italic"
   id="tspan12">z</tspan>)<tspan
   style="font-size:65%;baseline-shift:super"
   id="tspan11">2</tspan></tspan></text>
  </g>
</svg>
