<?xml version="1.0" encoding="UTF-8" standalone="no"?>
<!-- Created with Inkscape (http://www.inkscape.org/) -->

<svg
   version="1.1"
   id="svg1"
   width="1093.3333"
   height="820"
   viewBox="0 0 1093.3333 820"
   sodipodi:docname="overdensity_forces_2b.svg"
   inkscape:version="1.4.3 (0d15f75042, 2025-12-25)"
   xmlns:inkscape="http://www.inkscape.org/namespaces/inkscape"
   xmlns:sodipodi="http://sodipodi.sourceforge.net/DTD/sodipodi-0.dtd"
   xmlns="http://www.w3.org/2000/svg"
   xmlns:svg="http://www.w3.org/2000/svg">
  <defs
     id="defs1">
    <marker
       style="overflow:visible"
       id="Stop"
       refX="0"
       refY="0"
       orient="auto"
       inkscape:stockid="Stop"
       markerWidth="1"
       markerHeight="1"
       viewBox="0 0 1 1"
       inkscape:isstock="true"
       inkscape:collect="always"
       preserveAspectRatio="xMidYMid">
      <path
         style="fill:none;stroke:context-stroke;stroke-width:1"
         d="M 0,4 V -4"
         id="path3" />
    </marker>
    <marker
       style="overflow:visible"
       id="Triangle"
       refX="0"
       refY="0"
       orient="auto-start-reverse"
       inkscape:stockid="Triangle arrow"
       markerWidth="1"
       markerHeight="1"
       viewBox="0 0 1 1"
       inkscape:isstock="true"
       inkscape:collect="always"
       preserveAspectRatio="xMidYMid">
      <path
         transform="scale(0.5)"
         style="fill:context-stroke;fill-rule:evenodd;stroke:context-stroke;stroke-width:1pt"
         d="M 5.77,0 -2.88,5 V -5 Z"
         id="path135" />
    </marker>
    <radialGradient
       fx="283.1091"
       fy="348.32034"
       cx="283.10913"
       cy="348.32037"
       r="108.38909"
       gradientUnits="userSpaceOnUse"
       gradientTransform="matrix(1.892355,0,0,1.892353,-124.53269,-309.74278)"
       spreadMethod="pad"
       id="radialGradient10">
      <stop
         style="stop-opacity:1;stop-color:#000000"
         offset="0"
         id="stop6" />
      <stop
         style="stop-opacity:0.43065537;stop-color:#000000"
         offset="0.5"
         id="stop7" />
      <stop
         style="stop-opacity:0.16058595;stop-color:#f4f4f4"
         offset="0.75"
         id="stop8" />
      <stop
         style="stop-opacity:0.25546654;stop-color:#000000"
         offset="0.882143"
         id="stop9" />
      <stop
         style="stop-opacity:0;stop-color:#000000"
         offset="1"
         id="stop10" />
    </radialGradient>
  </defs>
  <sodipodi:namedview
     id="namedview1"
     pagecolor="#ffffff"
     bordercolor="#666666"
     borderopacity="1.0"
     inkscape:showpageshadow="2"
     inkscape:pageopacity="0.0"
     inkscape:pagecheckerboard="0"
     inkscape:deskcolor="#d1d1d1"
     inkscape:zoom="0.73556472"
     inkscape:cx="742.28682"
     inkscape:cy="558.75437"
     inkscape:window-width="1920"
     inkscape:window-height="1022"
     inkscape:window-x="1680"
     inkscape:window-y="0"
     inkscape:window-maximized="1"
     inkscape:current-layer="g1"
     showguides="true">
    <inkscape:page
       x="0"
       y="0"
       inkscape:label="1"
       id="page1"
       width="1093.3333"
       height="820"
       margin="0"
       bleed="0" />
    <sodipodi:guide
       position="804.57636,877.49177"
       orientation="1,0"
       id="guide4"
       inkscape:locked="false" />
    <sodipodi:guide
       position="546.51888,-40.563293"
       orientation="1,0"
       id="guide5"
       inkscape:locked="false" />
  </sodipodi:namedview>
  <g
     id="g1"
     inkscape:groupmode="layer"
     inkscape:label="1">
    <path
       id="path1"
       d="M 28.828,49.063 H 787.969 V 601.176 H 28.828 Z"
       style="fill:#e6e6e6;fill-opacity:1;fill-rule:nonzero;stroke:#0d62b3;stroke-width:2.40234;stroke-linecap:butt;stroke-linejoin:miter;stroke-miterlimit:4;stroke-dasharray:none;stroke-opacity:1"
       transform="scale(1.3333333)"
       sodipodi:nodetypes="ccccc" />
    <path
       d="m 614.164,348.914 c 0,112.758 -91.406,204.164 -204.164,204.164 -112.758,0 -204.164,-91.406 -204.164,-204.164 0,-112.758 91.406,-204.164 204.164,-204.164 112.758,0 204.164,91.406 204.164,204.164 z"
       transform="scale(1.3333333)"
       style="fill:url(#radialGradient10);stroke:none"
       opacity="1"
       id="path10" />
    <path
       id="path11"
       d="m 409.812,190.051 v 92.844"
       style="fill:none;stroke:#000000;stroke-width:8.00781;stroke-linecap:butt;stroke-linejoin:miter;stroke-miterlimit:4;stroke-dasharray:none;stroke-opacity:1"
       transform="scale(1.3333333)" />
    <path
       id="path12"
       d="M 429.191,241 409.887,293.496 390.586,241 c 11.394,8.387 26.988,8.34 38.605,0 z"
       style="fill:#000000;fill-opacity:1;fill-rule:evenodd;stroke:none"
       transform="scale(1.3333333)" />
    <path
       id="path13"
       d="M 409.953,513.801 V 420.965"
       style="fill:none;stroke:#000000;stroke-width:8.00781;stroke-linecap:butt;stroke-linejoin:miter;stroke-miterlimit:4;stroke-dasharray:none;stroke-opacity:1"
       transform="scale(1.3333333)" />
    <path
       id="path14"
       d="m 390.57,462.855 19.305,-52.5 19.305,52.5 c -11.399,-8.39 -26.992,-8.339 -38.61,0 z"
       style="fill:#000000;fill-opacity:1;fill-rule:evenodd;stroke:none"
       transform="scale(1.3333333)" />
    <path
       id="path15"
       d="M 574.793,351.168 H 481.957"
       style="fill:none;stroke:#000000;stroke-width:8.00781;stroke-linecap:butt;stroke-linejoin:miter;stroke-miterlimit:4;stroke-dasharray:none;stroke-opacity:1"
       transform="scale(1.3333333)" />
    <path
       id="path16"
       d="m 523.848,370.547 -52.496,-19.305 52.496,-19.304 c -8.387,11.398 -8.336,26.992 0,38.609 z"
       style="fill:#000000;fill-opacity:1;fill-rule:evenodd;stroke:none"
       transform="scale(1.3333333)" />
    <path
       id="path17"
       d="m 245.203,351.305 h 92.84"
       style="fill:none;stroke:#000000;stroke-width:8.00781;stroke-linecap:butt;stroke-linejoin:miter;stroke-miterlimit:4;stroke-dasharray:none;stroke-opacity:1"
       transform="scale(1.3333333)" />
    <path
       id="path18"
       d="m 296.152,331.926 52.496,19.304 -52.496,19.305 c 8.387,-11.398 8.34,-26.992 0,-38.609 z"
       style="fill:#000000;fill-opacity:1;fill-rule:evenodd;stroke:none"
       transform="scale(1.3333333)" />
    <text
       id="text18"
       xml:space="preserve"
       transform="matrix(1.3333333,0,0,1.3333333,372.54977,156.90647)"><tspan
         id="tspan18"
         style="font-variant:normal;font-weight:normal;font-size:32.0312px;font-family:'TeX Gyre Pagella';writing-mode:lr-tb;fill:#000000;fill-opacity:1;fill-rule:nonzero;stroke:none"
         x="0"
         dx="0 0 -0.48046803 -1.1210921 0 0 0 0 0 0 0 0 0 0 0 0 0 0 0 0 0 -0.96093607"
         y="0">Gravity - from matter-</tspan><tspan
         id="tspan19"
         style="font-variant:normal;font-weight:normal;font-size:32.0312px;font-family:'TeX Gyre Pagella';writing-mode:lr-tb;fill:#000000;fill-opacity:1;fill-rule:nonzero;stroke:none"
         x="0"
         dx="0 0 0 0 -0.32031202"
         y="40.039066">energy density</tspan></text>
    <path
       id="path19"
       d="m 29.232,337.393 0.002,-62.967"
       style="fill:#008080;fill-opacity:1;fill-rule:nonzero;stroke:#008000;stroke-width:5.66238;stroke-linecap:butt;stroke-linejoin:miter;stroke-miterlimit:4;stroke-dasharray:none;stroke-opacity:1"
       transform="matrix(1.3333333,-1.333332,1.3333333,1.333332,0,0)" />
    <path
       id="path20"
       d="m 304.045,-15.529 -37.119,-13.651 37.119,-13.65 c -5.93,8.063 -5.894,19.086 0,27.301 z"
       style="fill:#008000;fill-opacity:1;fill-rule:evenodd;stroke:#008000;stroke-width:2.12339;stroke-linecap:butt;stroke-linejoin:round;stroke-miterlimit:4;stroke-dasharray:none;stroke-opacity:1"
       transform="matrix(1.3333333,1.333332,-1.3333333,1.333332,0,0)" />
    <path
       id="path21"
       d="m 29.328,424.926 0.002,62.963"
       style="fill:#008080;fill-opacity:1;fill-rule:nonzero;stroke:#008000;stroke-width:5.66238;stroke-linecap:butt;stroke-linejoin:miter;stroke-miterlimit:4;stroke-dasharray:none;stroke-opacity:1"
       transform="matrix(1.3333333,-1.333332,1.3333333,1.333332,0,0)" />
    <path
       id="path22"
       d="m -458.27,43.031 -37.119,-13.646 37.121,-13.653 c -5.931,8.061 -5.898,19.086 -0.002,27.299 z"
       style="fill:#008000;fill-opacity:1;fill-rule:evenodd;stroke:#008000;stroke-width:2.12339;stroke-linecap:butt;stroke-linejoin:round;stroke-miterlimit:4;stroke-dasharray:none;stroke-opacity:1"
       transform="matrix(-1.3333333,-1.333332,1.3333333,-1.333332,0,0)" />
    <path
       id="path23"
       d="m 75.06,380.592 h 62.965"
       style="fill:#008080;fill-opacity:1;fill-rule:nonzero;stroke:#008000;stroke-width:5.66238;stroke-linecap:butt;stroke-linejoin:miter;stroke-miterlimit:4;stroke-dasharray:none;stroke-opacity:1"
       transform="matrix(1.3333333,-1.333332,1.3333333,1.333332,0,0)" />
    <path
       id="path24"
       d="m -108.406,-366.887 -37.117,-13.652 37.117,-13.649 c -5.93,8.059 -5.895,19.086 0,27.301 z"
       style="fill:#008000;fill-opacity:1;fill-rule:evenodd;stroke:#008000;stroke-width:2.12339;stroke-linecap:butt;stroke-linejoin:round;stroke-miterlimit:4;stroke-dasharray:none;stroke-opacity:1"
       transform="matrix(-1.3333333,1.333332,-1.3333333,-1.333332,0,0)" />
    <path
       id="path25"
       d="M -16.34,380.688 H -79.309"
       style="fill:#008080;fill-opacity:1;fill-rule:nonzero;stroke:#008000;stroke-width:5.66238;stroke-linecap:butt;stroke-linejoin:miter;stroke-miterlimit:4;stroke-dasharray:none;stroke-opacity:1"
       transform="matrix(1.3333333,-1.333332,1.3333333,1.333332,0,0)" />
    <path
       id="path26"
       d="m -49.686,394.393 -37.121,-13.653 37.121,-13.648 c -5.931,8.061 -5.896,19.084 0,27.301 z"
       style="fill:#008000;fill-opacity:1;fill-rule:evenodd;stroke:#008000;stroke-width:2.12339;stroke-linecap:butt;stroke-linejoin:round;stroke-miterlimit:4;stroke-dasharray:none;stroke-opacity:1"
       transform="matrix(1.3333333,-1.333332,1.3333333,1.333332,0,0)" />
    <text
       id="text26"
       xml:space="preserve"
       x="701.45813"
       y="562.6698"
       style="font-size:16px;stroke-width:1.33333"><tspan
         id="tspan26"
         style="font-variant:normal;font-weight:normal;font-size:42.7083px;font-family:'TeX Gyre Pagella';writing-mode:lr-tb;fill:#008000;fill-opacity:1;fill-rule:nonzero;stroke:none;stroke-width:1.33333"
         x="701.45813"
         y="562.6698">Pressure - from</tspan><tspan
         id="tspan27"
         style="font-variant:normal;font-weight:normal;font-size:42.7083px;font-family:'TeX Gyre Pagella';writing-mode:lr-tb;fill:#008000;fill-opacity:1;fill-rule:nonzero;stroke:none;stroke-width:1.33333"
         x="701.45813"
         dx="0 0 0 0 0 0 0 0 0 0 0 0 0 0 0 -1.7083308"
         y="616.05518">collisions between</tspan><tspan
         id="tspan28"
         style="font-variant:normal;font-weight:normal;font-size:42.7083px;font-family:'TeX Gyre Pagella';writing-mode:lr-tb;fill:#008000;fill-opacity:1;fill-rule:nonzero;stroke:none;stroke-width:1.33333"
         x="701.45813"
         y="669.44061">particles</tspan></text>
    <text
       id="text28"
       xml:space="preserve"
       transform="matrix(1.3333333,0,0,1.3333333,455.81763,456.46668)"><tspan
         id="tspan29"
         style="font-variant:normal;font-weight:normal;font-size:32.0312px;font-family:'TeX Gyre Pagella';writing-mode:lr-tb;fill:#ffff00;fill-opacity:1;fill-rule:nonzero;stroke:none"
         x="0"
         y="0">dm,</tspan></text>
    <text
       id="text29"
       xml:space="preserve"
       transform="matrix(1.3333333,0,0,1.3333333,538.23137,456.46668)"><tspan
         id="tspan30"
         style="font-variant:normal;font-weight:normal;font-size:32.0312px;font-family:'TeX Gyre Pagella';writing-mode:lr-tb;fill:#008000;fill-opacity:1;fill-rule:nonzero;stroke:none"
         x="0"
         dx="0 0 -0.48046803"
         y="0"> gas, </tspan><tspan
         id="tspan31"
         style="font-variant:normal;font-weight:normal;font-size:32.0312px;font-family:'TeX Gyre Pagella';writing-mode:lr-tb;fill:#008000;fill-opacity:1;fill-rule:nonzero;stroke:none"
         x="-27.65196"
         dx="0 2.5945272"
         y="40.049767">γ,</tspan></text>
    <text
       id="text31"
       xml:space="preserve"
       transform="matrix(1.3333333,0,0,1.3333333,543.40308,509.86636)"><tspan
         id="tspan32"
         style="font-variant:normal;font-weight:normal;font-size:32.0312px;font-family:'TeX Gyre Pagella';writing-mode:lr-tb;fill:#ff6600;fill-opacity:1;fill-rule:nonzero;stroke:none"
         x="0"
         y="0"> ν</tspan></text>
    <path
       id="path32"
       d="M 38.793,169.512 V 106.543"
       style="fill:#800000;fill-opacity:1;fill-rule:nonzero;stroke:#800000;stroke-width:5.66238;stroke-linecap:butt;stroke-linejoin:miter;stroke-miterlimit:4;stroke-dasharray:none;stroke-opacity:1"
       transform="matrix(1.3333333,-1.333332,1.3333333,1.333332,0,0)" />
    <path
       id="path33"
       d="m 136.166,-25.088 -37.123,-13.65 37.123,-13.651 c -5.934,8.059 -5.896,19.084 0,27.301 z"
       style="fill:#800000;fill-opacity:1;fill-rule:evenodd;stroke:#800000;stroke-width:2.12339;stroke-linecap:butt;stroke-linejoin:round;stroke-miterlimit:4;stroke-dasharray:none;stroke-opacity:1"
       transform="matrix(1.3333333,1.333332,-1.3333333,1.333332,0,0)" />
    <path
       id="path34"
       d="m 38.888,561.342 v 62.965"
       style="fill:#800000;fill-opacity:1;fill-rule:nonzero;stroke:#800000;stroke-width:5.66238;stroke-linecap:butt;stroke-linejoin:miter;stroke-miterlimit:4;stroke-dasharray:none;stroke-opacity:1"
       transform="matrix(1.3333333,-1.333332,1.3333333,1.333332,0,0)" />
    <path
       id="path35"
       d="m -594.686,52.595 -37.121,-13.652 37.121,-13.648 c -5.931,8.056 -5.896,19.084 0,27.3 z"
       style="fill:#800000;fill-opacity:1;fill-rule:evenodd;stroke:#800000;stroke-width:2.12339;stroke-linecap:butt;stroke-linejoin:round;stroke-miterlimit:4;stroke-dasharray:none;stroke-opacity:1"
       transform="matrix(-1.3333333,-1.333332,1.3333333,-1.333332,0,0)" />
    <path
       id="path36"
       d="m 244.775,372.869 62.967,-0.002"
       style="fill:#800000;fill-opacity:1;fill-rule:nonzero;stroke:#800000;stroke-width:5.66238;stroke-linecap:butt;stroke-linejoin:miter;stroke-miterlimit:4;stroke-dasharray:none;stroke-opacity:1"
       transform="matrix(1.3333333,-1.333332,1.3333333,1.333332,0,0)" />
    <path
       id="path37"
       d="m -278.123,-359.162 -37.119,-13.651 37.119,-13.65 c -5.928,8.057 -5.895,19.082 0,27.301 z"
       style="fill:#800000;fill-opacity:1;fill-rule:evenodd;stroke:#800000;stroke-width:2.12339;stroke-linecap:butt;stroke-linejoin:round;stroke-miterlimit:4;stroke-dasharray:none;stroke-opacity:1"
       transform="matrix(-1.3333333,1.333332,-1.3333333,-1.333332,0,0)" />
    <path
       id="path38"
       d="m -158.928,364.955 -62.967,0.002"
       style="fill:#800000;fill-opacity:1;fill-rule:nonzero;stroke:#800000;stroke-width:5.66238;stroke-linecap:butt;stroke-linejoin:miter;stroke-miterlimit:4;stroke-dasharray:none;stroke-opacity:1"
       transform="matrix(1.3333333,-1.333332,1.3333333,1.333332,0,0)" />
    <path
       id="path39"
       d="m -192.272,378.659 -37.123,-13.647 37.121,-13.652 c -5.929,8.058 -5.896,19.084 0.002,27.299 z"
       style="fill:#800000;fill-opacity:1;fill-rule:evenodd;stroke:#800000;stroke-width:2.12339;stroke-linecap:butt;stroke-linejoin:round;stroke-miterlimit:4;stroke-dasharray:none;stroke-opacity:1"
       transform="matrix(1.3333333,-1.333332,1.3333333,1.333332,0,0)" />
    <text
       id="text39"
       xml:space="preserve"
       transform="matrix(1.3333333,0,0,1.3333333,64.188637,222.63159)"><tspan
         id="tspan39"
         style="font-variant:normal;font-weight:normal;font-size:32.0312px;font-family:'TeX Gyre Pagella';writing-mode:lr-tb;fill:#800000;fill-opacity:1;fill-rule:nonzero;stroke:none"
         x="0"
         y="0">Expansion of </tspan><tspan
         id="tspan40"
         style="font-variant:normal;font-weight:normal;font-size:32.0312px;font-family:'TeX Gyre Pagella';writing-mode:lr-tb;fill:#800000;fill-opacity:1;fill-rule:nonzero;stroke:none"
         x="0"
         dx="0 0.48046803 0 0 0 0 0 0 -1.2812481"
         y="40.039066">the universe</tspan></text>
    <path
       id="path40"
       d="M 218.797,372.8 218.796,267.346"
       style="fill:#ff6600;fill-opacity:1;fill-rule:nonzero;stroke:#ff6600;stroke-width:3.67963;stroke-linecap:butt;stroke-linejoin:miter;stroke-miterlimit:4;stroke-dasharray:none;stroke-opacity:1"
       transform="matrix(1.3333333,-0.571964,0.57196667,1.333332,0,0)" />
    <path
       id="path41"
       d="m 286.596,-209.89 -24.124,-8.872 24.124,-8.866 c -3.855,5.233 -3.831,12.4 0,17.738 z"
       style="fill:#ff6600;fill-opacity:1;fill-rule:evenodd;stroke:#ff6600;stroke-width:1.37987;stroke-linecap:butt;stroke-linejoin:round;stroke-miterlimit:4;stroke-dasharray:none;stroke-opacity:1"
       transform="matrix(0.57196667,1.333332,-1.3333333,0.571964,0,0)" />
    <path
       id="path42"
       d="m 218.956,519.391 0.001,105.454"
       style="fill:#ff6600;fill-opacity:1;fill-rule:nonzero;stroke:#ff6600;stroke-width:3.67963;stroke-linecap:butt;stroke-linejoin:miter;stroke-miterlimit:4;stroke-dasharray:none;stroke-opacity:1"
       transform="matrix(1.3333333,-0.571964,0.57196667,1.333332,0,0)" />
    <path
       id="path43"
       d="m -605.599,227.862 -24.119,-8.874 24.122,-8.871 c -3.854,5.241 -3.83,12.407 -0.003,17.745 z"
       style="fill:#ff6600;fill-opacity:1;fill-rule:evenodd;stroke:#ff6600;stroke-width:1.37987;stroke-linecap:butt;stroke-linejoin:round;stroke-miterlimit:4;stroke-dasharray:none;stroke-opacity:1"
       transform="matrix(-0.57196667,-1.333332,1.3333333,-0.571964,0,0)" />
    <path
       id="path44"
       d="m 295.541,445.151 105.454,-0.002"
       style="fill:#ff6600;fill-opacity:1;fill-rule:nonzero;stroke:#ff6600;stroke-width:3.67963;stroke-linecap:butt;stroke-linejoin:miter;stroke-miterlimit:4;stroke-dasharray:none;stroke-opacity:1"
       transform="matrix(1.3333333,-0.571964,0.57196667,1.333332,0,0)" />
    <path
       id="path45"
       d="m -381.745,-436.243 -24.121,-8.871 24.121,-8.868 c -3.851,5.235 -3.835,12.399 0,17.739 z"
       style="fill:#ff6600;fill-opacity:1;fill-rule:evenodd;stroke:#ff6600;stroke-width:1.37987;stroke-linecap:butt;stroke-linejoin:round;stroke-miterlimit:4;stroke-dasharray:none;stroke-opacity:1"
       transform="matrix(-1.3333333,0.571964,-0.57196667,-1.333332,0,0)" />
    <path
       id="path46"
       d="M 142.473,445.309 37.021,445.307"
       style="fill:#ff6600;fill-opacity:1;fill-rule:nonzero;stroke:#ff6600;stroke-width:3.67963;stroke-linecap:butt;stroke-linejoin:miter;stroke-miterlimit:4;stroke-dasharray:none;stroke-opacity:1"
       transform="matrix(1.3333333,-0.571964,0.57196667,1.333332,0,0)" />
    <path
       id="path47"
       d="m 56.271,454.213 -24.122,-8.867 24.122,-8.871 c -3.856,5.237 -3.832,12.403 0,17.738 z"
       style="fill:#ff6600;fill-opacity:1;fill-rule:evenodd;stroke:#ff6600;stroke-width:1.37987;stroke-linecap:butt;stroke-linejoin:round;stroke-miterlimit:4;stroke-dasharray:none;stroke-opacity:1"
       transform="matrix(1.3333333,-0.571964,0.57196667,1.333332,0,0)" />
    <text
       id="text47"
       xml:space="preserve"
       x="802.91296"
       y="323.59583"
       style="font-size:16px;stroke-width:1.33333"><tspan
         id="tspan47"
         style="font-variant:normal;font-weight:normal;font-size:42.7083px;font-family:'TeX Gyre Pagella';writing-mode:lr-tb;fill:#ff6600;fill-opacity:1;fill-rule:nonzero;stroke:none;stroke-width:1.33333"
         x="802.91296"
         dx="0 -0.85416538"
         y="323.59583">Streaming of </tspan><tspan
         id="tspan48"
         style="font-variant:normal;font-weight:normal;font-size:42.7083px;font-family:'TeX Gyre Pagella';writing-mode:lr-tb;fill:#ff6600;fill-opacity:1;fill-rule:nonzero;stroke:none;stroke-width:1.33333"
         x="802.91296"
         y="376.98126">neutrinos</tspan></text>
    <path
       id="path48"
       d="m 65.391,421.332 h -4.914 l -14.606,25.926 c -3.285,5.687 -4.211,6.617 -7.391,7.39 l -0.656,0.094 -0.258,1.488 h 13.418 l 0.258,-1.488 -0.609,-0.094 c -2.203,-0.363 -3.227,-1.136 -3.227,-2.523 0,-1.02 0.41,-2.191 1.328,-3.941 l 2.719,-4.914 H 64.57 l 1.125,5.992 c 0.258,1.129 0.364,1.949 0.364,2.406 0,1.641 -1.079,2.57 -3.59,2.98 l -0.61,0.094 -0.257,1.488 h 13.886 l 0.258,-1.488 -0.621,-0.094 c -2.766,-0.668 -3.227,-1.339 -4.305,-6.418 z m -1.079,19.883 H 52.629 l 8.457,-15.633 z"
       style="fill:#008080;fill-opacity:1;fill-rule:nonzero;stroke:none"
       transform="scale(1.3333333)" />
    <path
       id="path49"
       d="m 98.852,450.133 c -3.375,2.812 -6.297,4.152 -9.067,4.152 -3.894,0 -6.555,-2.922 -6.555,-7.074 0,-3.438 1.43,-8 3.422,-10.664 1.75,-2.402 4,-3.789 6.16,-3.789 2.25,0 3.836,1.433 3.836,3.437 0,0.2 0,0.457 -0.046,0.762 -0.047,0.363 -0.106,0.672 -0.106,0.824 0,1.031 0.82,1.746 1.945,1.746 1.75,0 2.981,-1.336 2.981,-3.132 0,-3.122 -3.438,-5.536 -7.895,-5.536 -8.199,0 -15.531,7.379 -15.531,15.637 0,6.039 4.199,10.192 10.301,10.192 4.152,0 8.973,-2.145 11.683,-5.278 z m 19.117,-19.274 c -4.305,0 -7.989,1.594 -10.965,4.715 -2.711,2.922 -4.352,6.969 -4.352,10.922 0,6.098 4.305,10.192 10.707,10.192 8.457,0 15.274,-6.813 15.274,-15.321 0,-6.297 -4.258,-10.508 -10.664,-10.508 z m -0.305,2.157 c 1.598,0 3.438,0.824 4.305,1.843 0.871,1.125 1.433,3.075 1.433,5.278 0,3.027 -1.066,7.226 -2.453,9.691 -1.746,3.07 -4.258,4.715 -7.226,4.715 -3.895,0 -6.098,-2.664 -6.098,-7.332 0,-3.59 1.43,-7.941 3.484,-10.711 1.735,-2.25 4.047,-3.484 6.555,-3.484 z m 40.387,-1.688 h -4.715 l -3.379,18.606 c -4.152,3.011 -6.664,4.093 -9.434,4.093 -1.945,0 -3.128,-1.175 -3.128,-3.074 0,-0.515 0.058,-0.926 0.257,-2.055 l 3.176,-17.57 h -1.945 c -2.922,0.656 -3.695,0.82 -7.18,1.125 l -0.258,1.481 0.621,0.105 c 2.149,0.363 2.969,1.078 2.969,2.613 0,0.516 0,0.774 -0.094,1.235 l -2.007,10.965 c -0.2,1.175 -0.305,2.207 -0.305,3.074 0,2.969 2.101,4.762 5.738,4.762 2.461,0 4.61,-0.563 7.133,-1.887 1.84,-0.973 3.164,-1.949 4.094,-2.828 0.41,2.98 2.355,4.715 5.277,4.715 2.57,0 5.078,-1.325 7.227,-3.836 l -1.176,-1.079 c -1.031,1.325 -2.508,2.254 -3.692,2.254 -1.492,0 -2.617,-1.328 -2.617,-3.074 0,-0.41 0,-0.41 0.41,-2.875 z m 18.246,-0.469 c -6.301,0 -10.922,3.239 -10.922,7.637 0,1.899 1.184,3.742 3.027,4.774 1.489,0.761 3.332,1.429 7.227,2.664 3.328,1.078 4.516,2.097 4.516,4 0,2.765 -2.829,4.867 -6.512,4.867 -2.617,0 -4.258,-0.821 -5.582,-2.875 -1.492,-2.309 -2.313,-2.969 -3.848,-2.969 -1.234,0 -2.207,0.977 -2.207,2.301 0,2.769 5.481,5.43 11.168,5.43 6.981,0 12.199,-3.743 12.199,-8.657 0,-1.582 -0.761,-3.133 -2.051,-4 -1.175,-0.867 -2.757,-1.535 -5.996,-2.508 -3.378,-1.082 -4.246,-1.386 -5.019,-1.843 -1.129,-0.668 -1.692,-1.688 -1.692,-2.875 0,-2.403 2.102,-4.047 5.176,-4.047 2.203,0 4.305,0.93 5.231,2.254 1.535,2.308 1.945,2.617 3.332,2.617 1.383,0 2.355,-0.93 2.355,-2.149 0,-2.359 -5.078,-4.621 -10.402,-4.621 z m 25.371,-8.703 h -1.852 c -1.386,6.602 -3.484,8.809 -8.707,9.172 l -0.316,1.629 h 4.211 l -2.824,15.438 c -0.352,2.043 -0.504,3.074 -0.504,4.093 0,2.664 2.297,4.2 6.191,4.2 2.922,0 5.539,-1.067 7.895,-3.274 l -1.125,-1.289 c -1.996,1.75 -3.532,2.418 -5.231,2.418 -1.738,0 -2.922,-1.234 -2.922,-3.027 0,-0.868 0.106,-1.489 0.563,-4 l 2.676,-14.559 h 7.316 l 0.32,-1.629 h -7.332 z m 18.855,29.664 c -1.535,1.594 -2.613,2.207 -3.636,2.207 -1.641,0 -2.719,-1.234 -2.719,-3.027 0,-0.504 0.059,-0.867 0.105,-1.324 l 3.332,-18.348 h -1.949 c -2.922,0.656 -3.695,0.82 -7.179,1.125 l -0.258,1.481 0.621,0.105 c 2.148,0.363 2.969,1.078 2.969,2.566 0,0.563 0,0.821 -0.094,1.282 l -2.156,11.789 c -0.106,0.562 -0.153,1.23 -0.153,1.793 0,3.226 1.899,5.219 4.914,5.219 2.614,0 5.032,-1.231 7.391,-3.79 z m -3.07,-29.722 c -1.844,0 -3.637,1.793 -3.637,3.636 0,1.547 1.067,2.672 2.508,2.672 1.996,0 3.789,-1.793 3.789,-3.847 0,-1.43 -1.125,-2.461 -2.66,-2.461 z m 24.75,28.035 c -3.379,2.812 -6.301,4.152 -9.07,4.152 -3.895,0 -6.555,-2.922 -6.555,-7.074 0,-3.438 1.43,-8 3.426,-10.664 1.746,-2.402 4,-3.789 6.156,-3.789 2.254,0 3.836,1.433 3.836,3.437 0,0.2 0,0.457 -0.047,0.762 -0.047,0.363 -0.105,0.672 -0.105,0.824 0,1.031 0.82,1.746 1.949,1.746 1.746,0 2.977,-1.336 2.977,-3.132 0,-3.122 -3.434,-5.536 -7.895,-5.536 -8.199,0 -15.527,7.379 -15.527,15.637 0,6.039 4.199,10.192 10.297,10.192 4.152,0 8.972,-2.145 11.683,-5.278 z M 65.086,484.73 c -5.797,0 -11.18,2.098 -15.074,5.946 -4.246,4.152 -6.664,9.738 -6.664,15.426 0,8.808 6.054,14.863 14.922,14.863 5.996,0 11.226,-2.254 15.425,-6.559 3.895,-4 6.098,-9.429 6.098,-14.922 0,-8.714 -6.051,-14.754 -14.707,-14.754 z m -0.563,2.403 c 5.735,0 9.629,4.258 9.629,10.558 0,4.973 -1.734,10.969 -4.199,14.512 -2.816,3.988 -7.121,6.344 -11.484,6.344 -5.735,0 -9.477,-4.352 -9.477,-11.012 0,-5.023 1.946,-11.015 4.668,-14.652 2.711,-3.496 6.91,-5.75 10.863,-5.75 z m 30.903,7.789 c -6.301,0 -10.922,3.238 -10.922,7.637 0,1.902 1.184,3.742 3.027,4.773 1.489,0.766 3.332,1.434 7.227,2.664 3.328,1.078 4.515,2.102 4.515,4 0,2.77 -2.828,4.867 -6.511,4.867 -2.614,0 -4.258,-0.82 -5.582,-2.871 -1.492,-2.312 -2.313,-2.969 -3.848,-2.969 -1.23,0 -2.207,0.973 -2.207,2.297 0,2.77 5.48,5.434 11.168,5.434 6.98,0 12.199,-3.742 12.199,-8.656 0,-1.586 -0.762,-3.133 -2.051,-4 -1.175,-0.871 -2.757,-1.539 -5.996,-2.512 -3.379,-1.078 -4.246,-1.383 -5.019,-1.84 -1.125,-0.672 -1.692,-1.691 -1.692,-2.875 0,-2.406 2.102,-4.047 5.176,-4.047 2.203,0 4.305,0.926 5.231,2.25 1.535,2.313 1.945,2.617 3.332,2.617 1.382,0 2.355,-0.925 2.355,-2.144 0,-2.359 -5.078,-4.625 -10.402,-4.625 z m 34.179,19.273 c -3.378,2.817 -6.3,4.153 -9.07,4.153 -3.894,0 -6.555,-2.922 -6.555,-7.075 0,-3.433 1.43,-8 3.426,-10.66 1.746,-2.406 4,-3.789 6.156,-3.789 2.254,0 3.836,1.43 3.836,3.438 0,0.199 0,0.457 -0.046,0.761 -0.047,0.364 -0.106,0.668 -0.106,0.821 0,1.031 0.82,1.75 1.949,1.75 1.746,0 2.977,-1.34 2.977,-3.133 0,-3.121 -3.438,-5.539 -7.895,-5.539 -8.199,0 -15.531,7.379 -15.531,15.637 0,6.043 4.199,10.195 10.301,10.195 4.152,0 8.973,-2.149 11.683,-5.281 z m 17.223,1.692 c -1.539,1.593 -2.617,2.203 -3.637,2.203 -1.644,0 -2.722,-1.231 -2.722,-3.028 0,-0.503 0.058,-0.867 0.105,-1.324 l 3.332,-18.347 h -1.949 c -2.918,0.66 -3.691,0.824 -7.176,1.129 l -0.258,1.476 0.622,0.106 c 2.144,0.363 2.964,1.078 2.964,2.57 0,0.562 0,0.82 -0.093,1.277 l -2.157,11.789 c -0.105,0.563 -0.152,1.231 -0.152,1.797 0,3.223 1.898,5.219 4.914,5.219 2.617,0 5.031,-1.231 7.391,-3.789 z m -3.074,-29.727 c -1.844,0 -3.637,1.797 -3.637,3.637 0,1.547 1.067,2.676 2.512,2.676 1.992,0 3.789,-1.797 3.789,-3.848 0,-1.434 -1.129,-2.465 -2.664,-2.465 z m 16.965,29.785 c -1.535,1.383 -2.512,1.887 -3.637,1.887 -1.641,0 -2.828,-1.172 -2.828,-2.711 0,-0.668 0,-0.773 0.469,-3.234 l 5.117,-28.235 h -2.102 c -2.297,0.926 -3.988,1.336 -7.531,1.688 l -0.258,1.488 0.774,0.106 c 2.453,0.304 3.226,0.918 3.226,2.664 0,0.304 -0.047,0.714 -0.105,1.125 l -3.942,21.738 c -0.257,1.43 -0.41,2.66 -0.41,3.484 0,2.707 2.055,4.809 4.715,4.809 2.816,0 5.586,-1.328 7.684,-3.742 z m 14.297,0 c -1.536,1.383 -2.508,1.887 -3.633,1.887 -1.645,0 -2.828,-1.172 -2.828,-2.711 0,-0.668 0,-0.773 0.468,-3.234 l 5.114,-28.235 h -2.098 c -2.301,0.926 -3.988,1.336 -7.531,1.688 l -0.258,1.488 0.773,0.106 c 2.454,0.304 3.227,0.918 3.227,2.664 0,0.304 -0.047,0.714 -0.105,1.125 l -3.942,21.738 c -0.258,1.43 -0.41,2.66 -0.41,3.484 0,2.707 2.051,4.809 4.715,4.809 2.816,0 5.582,-1.328 7.683,-3.742 z m 28.953,-20.554 h -4.715 l -0.461,2.605 c -1.746,-1.945 -4.457,-3.074 -7.434,-3.074 -7.941,0 -14.757,7.59 -14.757,16.351 0,5.692 3.543,9.481 8.82,9.481 3.988,0 7.226,-1.949 10.348,-6.195 -0.047,0.351 -0.047,0.656 -0.047,0.82 0,1.176 0.609,2.863 1.382,3.836 0.762,0.93 2.149,1.539 3.532,1.539 2.664,0 5.945,-1.738 7.484,-3.988 l -1.129,-1.078 c -1.019,1.23 -2.461,1.992 -3.691,1.992 -1.481,0 -2.711,-1.231 -2.711,-2.77 0,-0.609 0.105,-1.476 0.351,-2.812 z m -5.586,4.765 c -1.336,7.223 -2.309,10.192 -4.153,13.114 -1.898,3.027 -5.125,5.078 -7.894,5.078 -2.859,0 -4.762,-2.356 -4.762,-5.793 0,-3.274 1.172,-7.426 2.817,-10.043 2.156,-3.379 4.972,-5.172 8.105,-5.172 2.402,0 4.047,0.762 5.887,2.816 z m 21.734,-13.937 h -1.851 c -1.387,6.605 -3.485,8.808 -8.707,9.172 l -0.317,1.632 h 4.211 l -2.824,15.438 c -0.352,2.039 -0.508,3.074 -0.508,4.094 0,2.66 2.301,4.199 6.195,4.199 2.922,0 5.536,-1.066 7.895,-3.274 l -1.125,-1.289 c -1.996,1.747 -3.531,2.414 -5.234,2.414 -1.735,0 -2.918,-1.23 -2.918,-3.023 0,-0.871 0.105,-1.492 0.562,-4 l 2.672,-14.559 h 7.32 l 0.317,-1.632 h -7.328 z m 18.805,29.668 c -1.535,1.593 -2.613,2.203 -3.633,2.203 -1.644,0 -2.723,-1.231 -2.723,-3.028 0,-0.503 0.059,-0.867 0.106,-1.324 l 3.332,-18.347 h -1.949 c -2.922,0.66 -3.696,0.824 -7.18,1.129 l -0.258,1.476 0.621,0.106 c 2.149,0.363 2.969,1.078 2.969,2.57 0,0.562 0,0.82 -0.094,1.277 l -2.156,11.789 c -0.105,0.563 -0.152,1.231 -0.152,1.797 0,3.223 1.898,5.219 4.914,5.219 2.617,0 5.031,-1.231 7.39,-3.789 z m -3.07,-29.727 c -1.844,0 -3.637,1.797 -3.637,3.637 0,1.547 1.066,2.676 2.508,2.676 1.996,0 3.789,-1.797 3.789,-3.848 0,-1.434 -1.125,-2.465 -2.66,-2.465 z m 19.261,8.762 c -4.304,0 -7.988,1.598 -10.968,4.719 -2.707,2.918 -4.352,6.964 -4.352,10.918 0,6.101 4.305,10.195 10.711,10.195 8.457,0 15.273,-6.816 15.273,-15.32 0,-6.301 -4.257,-10.512 -10.664,-10.512 z m -0.304,2.16 c 1.597,0 3.437,0.82 4.304,1.84 0.867,1.129 1.434,3.074 1.434,5.281 0,3.024 -1.07,7.223 -2.453,9.688 -1.746,3.074 -4.258,4.714 -7.227,4.714 -3.894,0 -6.097,-2.66 -6.097,-7.332 0,-3.585 1.429,-7.941 3.48,-10.707 1.738,-2.254 4.051,-3.484 6.559,-3.484 z m 22.043,4.41 c 3.894,-2.98 6.507,-4.152 9.277,-4.152 2.144,0 3.531,1.172 3.531,3.015 0,0.411 -0.105,1.079 -0.199,1.793 -0.152,0.563 -0.258,1.29 -0.258,1.29 l -1.492,8.046 c -0.457,2.454 -0.563,3.426 -0.563,4.403 0,2.765 2.055,4.867 4.762,4.867 2.465,0 4.824,-1.231 6.664,-3.484 l -1.019,-1.125 c -1.493,1.488 -2.207,1.945 -3.18,1.945 -1.383,0 -2.465,-1.278 -2.465,-2.875 0,-0.656 0.106,-1.324 0.363,-2.813 l 1.539,-8.398 c 0.61,-3.18 0.61,-3.18 0.61,-4.258 0,-2.969 -2.406,-4.824 -6.348,-4.824 -3.433,0 -6.613,1.234 -10.765,4.152 l 0.668,-3.683 h -1.95 c -2.918,0.66 -3.691,0.824 -7.175,1.129 l -0.258,1.476 0.621,0.106 c 2.144,0.363 2.965,1.078 2.965,2.57 0,0.504 -0.047,0.82 -0.094,1.277 l -3.328,18.348 h 4.715 z"
       style="fill:#008080;fill-opacity:1;fill-rule:nonzero;stroke:none"
       transform="scale(1.3333333)" />
    <path
       style="fill:none;stroke:#000000;stroke-width:2.3;stroke-linecap:butt;stroke-linejoin:miter;stroke-dasharray:none;stroke-opacity:1;marker-start:url(#Stop);marker-end:url(#Triangle)"
       d="m 546.66667,743.43731 h 257.9097"
       id="path2" />
    <text
       xml:space="preserve"
       style="font-size:42.6667px;line-height:1.25;font-family:'Noto Serif';-inkscape-font-specification:'Noto Serif';letter-spacing:0px"
       x="768.57629"
       y="790.53827"
       id="text3"><tspan
         sodipodi:role="line"
         id="tspan3"
         x="768.57629"
         y="790.53827"
         style="font-style:italic;font-variant:normal;font-weight:normal;font-stretch:normal;font-size:42.6667px;font-family:'TeX Gyre Pagella';-inkscape-font-specification:'TeX Gyre Pagella Italic'">r<tspan
   style="font-size:65%;baseline-shift:sub"
   id="tspan1">s</tspan></tspan></text>
    <text
       xml:space="preserve"
       style="font-size:42.6667px;line-height:1.25;font-family:'Noto Serif';-inkscape-font-specification:'Noto Serif';letter-spacing:0px"
       x="469.32269"
       y="790.53827"
       id="text2"><tspan
         sodipodi:role="line"
         id="tspan2"
         x="469.32269"
         y="790.53827"
         style="font-style:normal;font-variant:normal;font-weight:normal;font-stretch:normal;font-size:42.6667px;font-family:'TeX Gyre Pagella';-inkscape-font-specification:'TeX Gyre Pagella'">Sound horizon</tspan></text>
  </g>
</svg>
